<?xml version="1.0" standalone="no"?><!DOCTYPE svg PUBLIC "-//W3C//DTD SVG 1.1//EN" "http://www.w3.org/Graphics/SVG/1.1/DTD/svg11.dtd"><svg width="100%" height="100%" viewBox="0 0 48 48" version="1.1" xmlns="http://www.w3.org/2000/svg" xmlns:xlink="http://www.w3.org/1999/xlink" xml:space="preserve" style="fill-rule:evenodd;clip-rule:evenodd;stroke-linejoin:round;stroke-miterlimit:1.41421;"><g id="Lego_Square"><g><path d="M24.185,15.672c-2.414,0 -4.235,-1.051 -4.235,-2.444c0,-1.394 1.821,-2.445 4.235,-2.445c2.414,0 4.233,1.051 4.233,2.445c0,1.394 -1.819,2.444 -4.233,2.444ZM24.185,12.283c-1.702,0 -2.735,0.657 -2.735,0.945c0,0.288 1.033,0.944 2.735,0.944c1.701,0 2.733,-0.656 2.733,-0.944c0,-0.274 -0.957,-0.945 -2.733,-0.945l0,-1.77636e-15Z" style="fill:#387ef5;fill-rule:nonzero;"/><path d="M24.185,20.325c-2.414,0 -4.235,-1.051 -4.235,-2.445l0,-4.651c0,-0.414 0.336,-0.75 0.75,-0.75c0.414,0 0.75,0.336 0.75,0.75l0,4.651c0,0.289 1.033,0.945 2.735,0.945c1.776,0 2.733,-0.671 2.733,-0.945l0,-4.651c0,-0.414 0.336,-0.75 0.75,-0.75c0.414,0 0.75,0.336 0.75,0.75l0,4.651c0,1.394 -1.819,2.445 -4.233,2.445Z" style="fill:#387ef5;fill-rule:nonzero;"/></g><g><path d="M33.856,10.312c-2.415,0 -4.235,-1.05 -4.235,-2.443c0,-1.395 1.82,-2.446 4.235,-2.446c2.414,0 4.235,1.051 4.235,2.446c0.001,1.392 -1.82,2.443 -4.235,2.443ZM33.856,6.922c-1.702,0 -2.735,0.657 -2.735,0.946c0,0.288 1.033,0.943 2.735,0.943c1.702,0 2.735,-0.655 2.735,-0.943c0.001,-0.274 -0.958,-0.946 -2.735,-0.946l0,-8.88178e-16Z" style="fill:#387ef5;fill-rule:nonzero;"/><path d="M33.856,14.964c-2.415,0 -4.235,-1.051 -4.235,-2.445l0,-4.651c0,-0.414 0.336,-0.75 0.75,-0.75c0.414,0 0.75,0.336 0.75,0.75l0,4.651c0,0.289 1.033,0.945 2.735,0.945c1.776,0 2.735,-0.671 2.735,-0.945l0,-4.651c0,-0.414 0.336,-0.75 0.75,-0.75c0.414,0 0.75,0.336 0.75,0.75l0,4.651c0.001,1.394 -1.82,2.445 -4.235,2.445Z" style="fill:#387ef5;fill-rule:nonzero;"/></g><g><path d="M14.367,10.329c-2.414,0 -4.235,-1.05 -4.235,-2.443c0,-1.394 1.821,-2.445 4.235,-2.445c2.414,0 4.234,1.051 4.234,2.445c0,1.393 -1.82,2.443 -4.234,2.443l1.77636e-15,0ZM14.367,6.941c-1.776,0 -2.735,0.671 -2.735,0.945c0,0.288 1.033,0.943 2.735,0.943c1.701,0 2.734,-0.655 2.734,-0.943c0,-0.274 -0.958,-0.945 -2.734,-0.945l1.77636e-15,-8.88178e-16Z" style="fill:#387ef5;fill-rule:nonzero;"/><path d="M14.367,14.982c-2.414,0 -4.235,-1.051 -4.235,-2.445l0,-4.651c0,-0.414 0.336,-0.75 0.75,-0.75c0.414,0 0.75,0.336 0.75,0.75l0,4.651c0,0.274 0.959,0.945 2.735,0.945c1.776,0 2.734,-0.671 2.734,-0.945l0,-4.651c0,-0.414 0.336,-0.75 0.75,-0.75c0.414,0 0.75,0.336 0.75,0.75l0,4.651c0,1.394 -1.82,2.445 -4.234,2.445l1.77636e-15,0Z" style="fill:#387ef5;fill-rule:nonzero;"/></g><g><path d="M24.25,4.889c-2.415,0 -4.236,-1.05 -4.236,-2.443c0.001,-1.395 1.821,-2.446 4.236,-2.446c2.414,0 4.234,1.051 4.234,2.446c0.001,1.393 -1.818,2.443 -4.234,2.443ZM24.25,1.5c-1.702,0 -2.736,0.657 -2.736,0.946c0,0.288 1.034,0.943 2.736,0.943c1.701,0 2.734,-0.655 2.734,-0.943c0.001,-0.275 -0.957,-0.946 -2.734,-0.946l0,2.22045e-16Z" style="fill:#387ef5;fill-rule:nonzero;"/><path d="M24.25,9.542c-2.415,0 -4.236,-1.051 -4.236,-2.445l0,-4.651c0,-0.414 0.336,-0.75 0.75,-0.75c0.414,0 0.75,0.336 0.75,0.75l0,4.651c0,0.289 1.034,0.945 2.736,0.945c1.701,0 2.734,-0.656 2.734,-0.945l0,-4.651c0,-0.414 0.336,-0.75 0.75,-0.75c0.414,0 0.75,0.336 0.75,0.75l0,4.651c0.001,1.394 -1.818,2.445 -4.234,2.445Z" style="fill:#387ef5;fill-rule:nonzero;"/></g><g><path d="M23.901,48.016c-0.169,0 -0.338,-0.043 -0.49,-0.129l-19.007,-10.701c-0.316,-0.178 -0.51,-0.511 -0.51,-0.871l0,-23.009c0,-0.356 0.189,-0.685 0.497,-0.864c0.307,-0.179 0.687,-0.181 0.997,-0.005l19.01,10.8c0.312,0.178 0.506,0.51 0.506,0.87l-0.003,22.909c0,0.355 -0.188,0.685 -0.495,0.863c-0.156,0.091 -0.329,0.137 -0.505,0.137l-3.55271e-15,7.10543e-15ZM5.895,35.729l17.007,9.576l0.003,-20.618l-17.01,-9.663l0,20.705Z" style="fill:#387ef5;fill-rule:nonzero;"/><path d="M23.904,48.011c-0.175,0 -0.35,-0.046 -0.505,-0.137c-0.307,-0.179 -0.495,-0.508 -0.495,-0.863l0,-22.905c0,-0.362 0.195,-0.696 0.512,-0.873l19.216,-10.759c0.309,-0.173 0.688,-0.169 0.994,0.01c0.307,0.179 0.494,0.508 0.494,0.863l-0.018,22.887c0,0.36 -0.195,0.695 -0.511,0.871l-19.197,10.778c-0.151,0.086 -0.32,0.128 -0.49,0.128l-3.55271e-15,0ZM24.904,24.692l0,20.611l17.199,-9.654l0.016,-20.596l-17.215,9.639Z" style="fill:#387ef5;fill-rule:nonzero;"/><path d="M42.912,14.223c-0.16,0 -0.324,-0.039 -0.477,-0.121l-5.229,-2.84c-0.484,-0.264 -0.664,-0.871 -0.4,-1.356c0.264,-0.485 0.869,-0.664 1.355,-0.401l5.229,2.84c0.484,0.264 0.665,0.871 0.4,1.356c-0.18,0.333 -0.523,0.522 -0.878,0.522Z" style="fill:#387ef5;fill-rule:nonzero;"/><path d="M30.6,7.714c-0.154,0 -0.312,-0.036 -0.458,-0.112l-2.487,-1.285c-0.49,-0.253 -0.683,-0.856 -0.43,-1.347c0.253,-0.49 0.857,-0.684 1.348,-0.429l2.487,1.285c0.489,0.253 0.683,0.856 0.431,1.347c-0.179,0.344 -0.53,0.541 -0.891,0.541Z" style="fill:#387ef5;fill-rule:nonzero;"/><path d="M4.937,14.223c-0.354,0 -0.698,-0.189 -0.88,-0.522c-0.264,-0.485 -0.084,-1.093 0.401,-1.356l5.228,-2.84c0.483,-0.263 1.093,-0.085 1.356,0.4c0.264,0.485 0.084,1.093 -0.401,1.355l-5.228,2.84c-0.151,0.084 -0.315,0.123 -0.476,0.123Z" style="fill:#387ef5;fill-rule:nonzero;"/><path d="M17.625,7.548c-0.362,0 -0.713,-0.198 -0.89,-0.542c-0.253,-0.491 -0.061,-1.094 0.431,-1.347l2.736,-1.41c0.49,-0.252 1.095,-0.06 1.347,0.431c0.253,0.491 0.061,1.094 -0.431,1.347l-2.736,1.41c-0.146,0.075 -0.303,0.111 -0.457,0.111l0,-8.88178e-16Z" style="fill:#387ef5;fill-rule:nonzero;"/></g></g></svg>